<svg width="85" height="71" viewBox="0 0 85 71" fill="none" xmlns="http://www.w3.org/2000/svg">
<path d="M73.1 0.09375L35 0.193776V16.0979H29V29.1012H35V35.1028H0V61.1095H35V70.1118H84V11.1966L84.1 11.0966L73.1 0.09375ZM73 4.29483L79.9 11.1966H73V4.29483ZM32 26.1005V19.0987H46V26.1005H32ZM45.5 38.1036L24.5 46.5057L3.5 38.1036H45.5ZM3 58.1087V41.1043L24.5 49.7066L46 41.1043V58.1087H3ZM81 67.111H38V64.1103H46V61.1095H49V35.1028H38V32.102H46V29.1012H49V16.0979H38V3.19455H70V14.1974H73V17.1982H81V67.111Z" fill="#2B59C3"/>
</svg>
