<svg width="60" height="84" viewBox="0 0 60 84" fill="none" xmlns="http://www.w3.org/2000/svg">
<path d="M58.5714 0.160156H12.0286C8.8384 0.160156 5.77888 1.42996 3.52309 3.69023C1.26729 5.9505 0 9.01608 0 12.2126C0 12.4416 0 12.6849 0 12.8997C0 13.1144 0 12.9999 0 13.0428V70.7427C0.00378095 74.0406 1.31293 77.2023 3.64024 79.5342C5.96755 81.8661 9.12297 83.1779 12.4143 83.1816H58.5714C58.9503 83.1816 59.3137 83.0308 59.5816 82.7624C59.8495 82.494 60 82.1299 60 81.7502V1.59156C60 1.21193 59.8495 0.847845 59.5816 0.579405C59.3137 0.310964 58.9503 0.160156 58.5714 0.160156ZM24.1143 17.8094C23.7354 17.8094 23.372 17.9602 23.1041 18.2286C22.8362 18.4971 22.6857 18.8612 22.6857 19.2408V22.4901L17.2571 26.8702V9.82214H30.9571V26.8702L25.5429 22.4901V19.2408C25.5429 18.8612 25.3923 18.4971 25.1244 18.2286C24.8565 17.9602 24.4932 17.8094 24.1143 17.8094ZM57.1429 9.82214V13.5152H33.8143V9.82214H57.1429ZM33.8143 16.378H57.1429V21.3879H33.8143V16.378ZM5.52857 5.71401C7.25493 3.99117 9.59203 3.02359 12.0286 3.02297H57.1429V6.95933H11.1571C10.7783 6.95933 10.4149 7.11014 10.147 7.37858C9.87908 7.64702 9.72857 8.0111 9.72857 8.39073C9.72857 8.77037 9.87908 9.13445 10.147 9.40289C10.4149 9.67133 10.7783 9.82214 11.1571 9.82214H14.4V13.5152H11.1571C10.7783 13.5152 10.4149 13.666 10.147 13.9344C9.87908 14.2029 9.72857 14.5669 9.72857 14.9466C9.72857 15.3262 9.87908 15.6903 10.147 15.9587C10.4149 16.2272 10.7783 16.378 11.1571 16.378H14.4V21.3879H12.0286C11.7286 21.3879 11.4429 21.3879 11.1429 21.3879C8.98377 21.1748 6.96897 20.2052 5.45328 18.6499C3.93759 17.0945 3.01824 15.0532 2.85714 12.8853C2.85714 12.6706 2.85714 12.4273 2.85714 12.2126C2.85619 9.77791 3.81655 7.44172 5.52857 5.71401ZM57.1429 80.3188H12.4143C9.88074 80.315 7.45203 79.3049 5.66054 77.5099C3.86905 75.7148 2.86092 73.2813 2.85714 70.7427V19.9708L2.97143 20.0996C3.14286 20.3 3.34286 20.5004 3.52857 20.6865L3.8 20.9585C4.09144 21.236 4.39658 21.4988 4.71429 21.7457L5.68571 22.4185L6.02857 22.6189L6.74286 23.0054L7.17143 23.1915L7.87143 23.4777L8.32857 23.6352C8.56738 23.7199 8.81059 23.7916 9.05714 23.8499L9.51429 23.9644L10.3429 24.1076H10.7571C11.1759 24.1293 11.5955 24.1293 12.0143 24.1076H14.3857V29.7187C14.3848 29.9895 14.4606 30.2551 14.6043 30.4845C14.748 30.714 14.9538 30.8978 15.1976 31.0147C15.4415 31.1317 15.7134 31.1768 15.9819 31.1451C16.2504 31.1133 16.5043 31.0058 16.7143 30.8352L24.1 24.8662L31.4286 30.9783C31.554 31.0638 31.6881 31.1357 31.8286 31.193H31.9571H32.2571H32.4C32.7789 31.193 33.1422 31.0422 33.4102 30.7738C33.6781 30.5053 33.8286 30.1412 33.8286 29.7616V24.2507H57.1429V80.3188Z" fill="#2B59C3"/>
<path d="M42.9895 53.6245L35.2426 49.9082L39.2845 37.4081C39.4529 36.7324 39.2845 35.8878 38.6109 35.55C38.1056 35.0432 37.2636 35.0432 36.5899 35.55L16.7175 49.4015C16.2122 49.7393 15.8754 50.2461 16.0438 50.9218C16.0438 51.5974 16.3806 52.1042 17.0543 52.2731L24.6328 55.9894L19.412 67.8138C19.0752 68.4895 19.2436 69.3341 19.9173 69.8409C20.2541 70.1787 20.5909 70.1787 21.0961 70.1787C21.433 70.1787 21.7698 70.1787 21.9382 69.8409L43.1579 56.6651C43.6632 56.3272 44 55.8205 44 55.1448C44 54.4691 43.4948 53.9623 42.9895 53.6245ZM24.6328 64.2665L28.3378 55.9894C28.6746 55.1448 28.3378 54.1313 27.4957 53.7934L21.0961 50.7528L34.569 41.4622L31.706 50.5839C31.3692 51.4285 31.8744 52.2731 32.5481 52.611L38.7793 55.6515L24.6328 64.2665Z" fill="#2B59C3"/>
</svg>
