<svg width="82" height="88" viewBox="0 0 82 88" fill="none" xmlns="http://www.w3.org/2000/svg">
<path d="M58.9284 16.7759C53.1277 11.6337 45.7451 9.26035 37.967 10.0515C25.4429 11.5018 15.4236 21.6545 14.2371 34.1804C13.4461 42.4871 16.4782 50.5301 22.4107 56.1998C26.102 59.7598 28.3432 62.9242 28.6068 68.1983H27.4203C26.102 68.1983 24.9155 69.2532 24.9155 70.7035V75.8458C24.9155 77.1643 25.9702 78.351 27.4203 78.351H31.2435V80.1969H27.8158C27.0248 80.1969 26.4975 80.7243 26.4975 81.5154C26.4975 82.3065 27.0248 82.8339 27.8158 82.8339H31.2435V83.6251C31.2435 85.471 32.6937 87.0532 34.6711 87.0532H47.3271C49.1728 87.0532 50.7547 85.6029 50.7547 83.6251V82.8339H54.1824C54.9734 82.8339 55.5007 82.3065 55.5007 81.5154C55.5007 80.7243 54.9734 80.1969 54.1824 80.1969H50.7547V78.351H54.5779C55.8962 78.351 57.0827 77.2962 57.0827 75.8458V70.7035C57.0827 69.385 56.0281 68.1983 54.5779 68.1983H53.3914C53.6551 63.188 55.7644 60.0235 60.1149 55.6724C65.1245 50.662 67.893 43.9375 67.893 36.8175C67.893 29.17 64.729 21.9182 58.9284 16.7759ZM48.1181 81.5154V83.7569C48.1181 84.1525 47.8544 84.548 47.3271 84.548H34.6711C34.2756 84.548 33.8801 84.2843 33.8801 83.7569V81.6473V78.4828H47.9863V81.5154H48.1181ZM54.4461 75.7139H49.4364H32.6937H27.684V70.9672H30.057H52.0731H54.4461V75.7139ZM58.2692 53.9583C54.3142 57.9139 51.0184 61.8694 50.7547 68.3302H31.2435C30.9798 62.1331 28.3432 58.3094 24.2564 54.3538C18.8512 49.2116 16.2146 41.9597 16.8737 34.4441C17.9284 23.1048 26.893 13.8752 38.2306 12.6885C45.2178 11.8974 51.9412 14.007 57.2146 18.7537C62.356 23.3685 65.2564 29.9612 65.2564 36.8175C65.2564 43.2783 62.8834 49.3435 58.2692 53.9583Z" fill="#2B59C3"/>
<path d="M51.151 38.532L45.0867 35.6312L48.2507 25.874C48.3825 25.3466 48.2507 24.6873 47.7233 24.4236C47.3278 24.0281 46.6687 24.0281 46.1413 24.4236L30.5851 35.2356C30.1896 35.4993 29.9259 35.8949 30.0577 36.4223C30.0577 36.9497 30.3214 37.3453 30.8487 37.4771L36.7812 40.3779L32.6944 49.6077C32.4307 50.1351 32.5626 50.7943 33.0899 51.1899C33.3536 51.4536 33.6172 51.4536 34.0127 51.4536C34.2764 51.4536 34.54 51.4536 34.6719 51.1899L51.2828 40.9053C51.6783 40.6416 51.942 40.2461 51.942 39.7186C51.942 39.1912 51.5465 38.7957 51.151 38.532ZM36.7812 46.8387L39.6815 40.3779C39.9452 39.7186 39.6815 38.9275 39.0224 38.6638L34.0127 36.2904L44.5593 29.0385L42.3182 36.1586C42.0545 36.8179 42.45 37.4771 42.9773 37.7408L47.8552 40.1142L36.7812 46.8387Z" fill="#2B59C3"/>
<path d="M42.3163 5.0414V1.34971C42.3163 0.558634 41.789 0.03125 40.998 0.03125C40.207 0.03125 39.6797 0.558634 39.6797 1.34971V5.0414C39.6797 5.83248 40.207 6.35986 40.998 6.35986C41.789 6.35986 42.3163 5.83248 42.3163 5.0414Z" fill="#2B59C3"/>
<path d="M14.7645 15.4589L12.1279 12.8214C11.6005 12.2939 10.8095 12.2939 10.2822 12.8214C9.75489 13.3489 9.75489 14.1401 10.2822 14.6676L12.9189 17.3051C13.1825 17.5688 13.578 17.7007 13.8417 17.7007C14.1054 17.7007 14.5009 17.5688 14.7645 17.3051C15.2919 16.7776 15.2919 15.9863 14.7645 15.4589Z" fill="#2B59C3"/>
<path d="M1.31833 44.861H5.00965C5.80064 44.861 6.32797 44.3337 6.32797 43.5428C6.32797 42.7519 5.80064 42.2246 5.00965 42.2246H1.31833C0.527331 42.2246 0 42.7519 0 43.5428C0 44.3337 0.527331 44.861 1.31833 44.861Z" fill="#2B59C3"/>
<path d="M80.6815 44.861C81.4725 44.861 81.9998 44.3337 81.9998 43.5428C81.9998 42.7519 81.4725 42.2246 80.6815 42.2246H76.9902C76.1992 42.2246 75.6719 42.7519 75.6719 43.5428C75.6719 44.3337 76.1992 44.861 76.9902 44.861H80.6815Z" fill="#2B59C3"/>
<path d="M69.2099 17.3051L71.8466 14.6676C72.3739 14.1401 72.3739 13.3489 71.8466 12.8214C71.3192 12.2939 70.5282 12.2939 70.0009 12.8214L67.3642 15.4589C66.8369 15.9863 66.8369 16.7776 67.3642 17.3051C67.6279 17.5688 68.0234 17.7007 68.2871 17.7007C68.5507 17.7007 68.9462 17.5688 69.2099 17.3051Z" fill="#2B59C3"/>
</svg>
